<mxfile host="65bd71144e">
    <diagram id="cSm3X3dxzu8x9c72r_2N" name="Page-1">
        <mxGraphModel dx="1826" dy="755" grid="1" gridSize="10" guides="1" tooltips="1" connect="1" arrows="1" fold="1" page="1" pageScale="1" pageWidth="850" pageHeight="1100" math="0" shadow="0">
            <root>
                <mxCell id="0"/>
                <mxCell id="1" parent="0"/>
                <mxCell id="41" style="edgeStyle=none;html=1;fontFamily=Tahoma;fontSize=10;endArrow=none;endFill=0;dashed=1;startArrow=none;" parent="1" source="44" edge="1">
                    <mxGeometry relative="1" as="geometry">
                        <mxPoint x="250" y="610" as="targetPoint"/>
                    </mxGeometry>
                </mxCell>
                <mxCell id="2" value="&amp;lt;&amp;lt;boundary&amp;gt;&amp;gt;&lt;br&gt;&lt;u&gt;SellerUpdatePanel&lt;/u&gt;" style="rounded=0;whiteSpace=wrap;html=1;" parent="1" vertex="1">
                    <mxGeometry x="190" y="40" width="120" height="40" as="geometry"/>
                </mxCell>
                <mxCell id="46" style="edgeStyle=none;html=1;dashed=1;fontFamily=Tahoma;fontSize=10;endArrow=none;endFill=0;startArrow=none;" parent="1" source="95" edge="1">
                    <mxGeometry relative="1" as="geometry">
                        <mxPoint x="450" y="600" as="targetPoint"/>
                    </mxGeometry>
                </mxCell>
                <mxCell id="3" value="&lt;u&gt;&amp;lt;&amp;lt;control&amp;gt;&amp;gt;&lt;br&gt;UpdateStockControl&lt;/u&gt;" style="rounded=0;whiteSpace=wrap;html=1;" parent="1" vertex="1">
                    <mxGeometry x="390" y="40" width="120" height="40" as="geometry"/>
                </mxCell>
                <mxCell id="47" style="edgeStyle=none;html=1;dashed=1;fontFamily=Tahoma;fontSize=10;endArrow=none;endFill=0;startArrow=none;" parent="1" source="103" edge="1">
                    <mxGeometry relative="1" as="geometry">
                        <mxPoint x="645" y="600" as="targetPoint"/>
                    </mxGeometry>
                </mxCell>
                <mxCell id="4" value="&amp;lt;&amp;lt;entity&amp;gt;&amp;gt;&lt;br&gt;&lt;u&gt;ProductStock&lt;/u&gt;" style="rounded=0;whiteSpace=wrap;html=1;" parent="1" vertex="1">
                    <mxGeometry x="590" y="40" width="110" height="40" as="geometry"/>
                </mxCell>
                <mxCell id="6" style="edgeStyle=none;html=1;dashed=1;startArrow=none;endArrow=none;endFill=0;" parent="1" source="39" edge="1">
                    <mxGeometry relative="1" as="geometry">
                        <mxPoint x="105" y="610" as="targetPoint"/>
                    </mxGeometry>
                </mxCell>
                <mxCell id="5" value="Actor" style="shape=umlActor;verticalLabelPosition=bottom;verticalAlign=top;html=1;outlineConnect=0;" parent="1" vertex="1">
                    <mxGeometry x="90" y="40" width="30" height="60" as="geometry"/>
                </mxCell>
                <mxCell id="24" value="" style="edgeStyle=none;html=1;fontFamily=Tahoma;fontSize=10;endArrow=none;endFill=0;" parent="1" source="8" target="9" edge="1">
                    <mxGeometry relative="1" as="geometry"/>
                </mxCell>
                <mxCell id="8" value="&lt;u&gt;&lt;br&gt;&lt;br&gt;&lt;br&gt;&lt;br&gt;&lt;br&gt;&lt;br&gt;UpdateStock&lt;br&gt;Control&lt;/u&gt;" style="ellipse;shape=umlControl;whiteSpace=wrap;html=1;" parent="1" vertex="1">
                    <mxGeometry x="-340" y="140" width="50" height="55" as="geometry"/>
                </mxCell>
                <mxCell id="9" value="&lt;br&gt;&lt;br&gt;&lt;br&gt;&lt;br&gt;&lt;br&gt;&lt;u&gt;ProductStock&lt;/u&gt;" style="ellipse;shape=umlEntity;whiteSpace=wrap;html=1;" parent="1" vertex="1">
                    <mxGeometry x="-340" y="315" width="50" height="50" as="geometry"/>
                </mxCell>
                <mxCell id="20" style="edgeStyle=none;html=1;fontFamily=Tahoma;fontSize=10;endArrow=none;endFill=0;" parent="1" source="10" target="8" edge="1">
                    <mxGeometry relative="1" as="geometry"/>
                </mxCell>
                <mxCell id="10" value="&lt;u&gt;&lt;br&gt;&lt;br&gt;&lt;br&gt;&lt;br&gt;&lt;br&gt;&lt;br&gt;SellerUpdate&lt;br&gt;Panel&lt;/u&gt;" style="shape=umlBoundary;whiteSpace=wrap;html=1;" parent="1" vertex="1">
                    <mxGeometry x="-570" y="140" width="60" height="50" as="geometry"/>
                </mxCell>
                <mxCell id="15" style="edgeStyle=none;html=1;fontFamily=Tahoma;endArrow=none;endFill=0;" parent="1" source="11" target="10" edge="1">
                    <mxGeometry relative="1" as="geometry"/>
                </mxCell>
                <mxCell id="11" value="&lt;u&gt;Seller&lt;/u&gt;" style="shape=umlActor;verticalLabelPosition=bottom;verticalAlign=top;html=1;outlineConnect=0;" parent="1" vertex="1">
                    <mxGeometry x="-740" y="135" width="30" height="60" as="geometry"/>
                </mxCell>
                <mxCell id="17" value="" style="endArrow=classic;html=1;fontFamily=Tahoma;" parent="1" edge="1">
                    <mxGeometry width="50" height="50" relative="1" as="geometry">
                        <mxPoint x="-680" y="175" as="sourcePoint"/>
                        <mxPoint x="-610" y="175" as="targetPoint"/>
                    </mxGeometry>
                </mxCell>
                <mxCell id="18" value="&lt;font style=&quot;font-size: 10px;&quot;&gt;1. update()&lt;br&gt;6. confirm()&lt;/font&gt;" style="text;html=1;align=left;verticalAlign=middle;resizable=0;points=[];autosize=1;strokeColor=none;fillColor=none;fontFamily=Tahoma;strokeWidth=0;" parent="1" vertex="1">
                    <mxGeometry x="-681" y="190" width="80" height="40" as="geometry"/>
                </mxCell>
                <mxCell id="21" value="&lt;font style=&quot;font-size: 10px;&quot;&gt;&lt;font style=&quot;font-size: 10px;&quot;&gt;2. sentUpdatet()&lt;br&gt;&lt;/font&gt;7. sentConfirm()&lt;br&gt;&lt;/font&gt;" style="text;html=1;align=left;verticalAlign=middle;resizable=0;points=[];autosize=1;strokeColor=none;fillColor=none;fontFamily=Tahoma;strokeWidth=0;" parent="1" vertex="1">
                    <mxGeometry x="-475" y="190" width="100" height="40" as="geometry"/>
                </mxCell>
                <mxCell id="25" value="" style="endArrow=classic;html=1;fontFamily=Tahoma;" parent="1" edge="1">
                    <mxGeometry width="50" height="50" relative="1" as="geometry">
                        <mxPoint x="-610" y="155" as="sourcePoint"/>
                        <mxPoint x="-680" y="155" as="targetPoint"/>
                    </mxGeometry>
                </mxCell>
                <mxCell id="27" value="" style="endArrow=classic;html=1;fontFamily=Tahoma;" parent="1" edge="1">
                    <mxGeometry width="50" height="50" relative="1" as="geometry">
                        <mxPoint x="-450" y="175" as="sourcePoint"/>
                        <mxPoint x="-380" y="175" as="targetPoint"/>
                    </mxGeometry>
                </mxCell>
                <mxCell id="28" value="" style="endArrow=classic;html=1;fontFamily=Tahoma;" parent="1" edge="1">
                    <mxGeometry width="50" height="50" relative="1" as="geometry">
                        <mxPoint x="-380" y="155" as="sourcePoint"/>
                        <mxPoint x="-450" y="155" as="targetPoint"/>
                    </mxGeometry>
                </mxCell>
                <mxCell id="29" value="&lt;font style=&quot;&quot;&gt;&lt;span style=&quot;font-size: 10px;&quot;&gt;4. sentUpdatedForm()&lt;/span&gt;&lt;br&gt;&lt;/font&gt;" style="text;html=1;align=left;verticalAlign=middle;resizable=0;points=[];autosize=1;strokeColor=none;fillColor=none;fontFamily=Tahoma;strokeWidth=0;" parent="1" vertex="1">
                    <mxGeometry x="-475" y="110" width="120" height="30" as="geometry"/>
                </mxCell>
                <mxCell id="30" value="&lt;span style=&quot;color: rgb(240, 240, 240); font-family: Tahoma; font-size: 10px; font-style: normal; font-variant-ligatures: normal; font-variant-caps: normal; font-weight: 400; letter-spacing: normal; orphans: 2; text-align: left; text-indent: 0px; text-transform: none; widows: 2; word-spacing: 0px; -webkit-text-stroke-width: 0px; background-color: rgb(42, 37, 47); text-decoration-thickness: initial; text-decoration-style: initial; text-decoration-color: initial; float: none; display: inline !important;&quot;&gt;5. UpdatedForm()&lt;br&gt;&lt;/span&gt;" style="text;whiteSpace=wrap;html=1;fontSize=10;fontFamily=Tahoma;" parent="1" vertex="1">
                    <mxGeometry x="-681" y="110" width="130" height="25" as="geometry"/>
                </mxCell>
                <mxCell id="40" value="" style="edgeStyle=none;html=1;dashed=1;endArrow=none;" parent="1" source="5" target="39" edge="1">
                    <mxGeometry relative="1" as="geometry">
                        <mxPoint x="105" y="610" as="targetPoint"/>
                        <mxPoint x="105" y="100" as="sourcePoint"/>
                    </mxGeometry>
                </mxCell>
                <mxCell id="39" value="" style="rounded=0;whiteSpace=wrap;html=1;rotation=90;" parent="1" vertex="1">
                    <mxGeometry x="-110.93" y="346.88" width="431.87" height="17.18" as="geometry"/>
                </mxCell>
                <mxCell id="45" value="" style="edgeStyle=none;html=1;fontFamily=Tahoma;fontSize=10;endArrow=none;endFill=0;dashed=1;" parent="1" source="2" target="44" edge="1">
                    <mxGeometry relative="1" as="geometry">
                        <mxPoint x="240" y="610" as="targetPoint"/>
                        <mxPoint x="249.6363636363635" y="80" as="sourcePoint"/>
                    </mxGeometry>
                </mxCell>
                <mxCell id="44" value="" style="rounded=0;whiteSpace=wrap;html=1;rotation=90;" parent="1" vertex="1">
                    <mxGeometry x="226.56" y="190" width="46.88" height="17.18" as="geometry"/>
                </mxCell>
                <mxCell id="48" value="" style="endArrow=classic;html=1;fontFamily=Tahoma;" parent="1" edge="1">
                    <mxGeometry width="50" height="50" relative="1" as="geometry">
                        <mxPoint x="-300" y="245" as="sourcePoint"/>
                        <mxPoint x="-300" y="295" as="targetPoint"/>
                    </mxGeometry>
                </mxCell>
                <mxCell id="50" value="&lt;font style=&quot;font-size: 10px;&quot;&gt;8. updateProduct()&lt;br&gt;&lt;/font&gt;" style="text;html=1;align=left;verticalAlign=middle;resizable=0;points=[];autosize=1;strokeColor=none;fillColor=none;fontFamily=Tahoma;strokeWidth=0;" parent="1" vertex="1">
                    <mxGeometry x="-290" y="250" width="110" height="30" as="geometry"/>
                </mxCell>
                <mxCell id="66" value="&lt;&lt;boundary&gt;&gt;&#10;SellerUpdatePanel" style="swimlane;fontStyle=1;align=center;verticalAlign=top;childLayout=stackLayout;horizontal=1;startSize=26;horizontalStack=0;resizeParent=1;resizeParentMax=0;resizeLast=0;collapsible=1;marginBottom=0;strokeWidth=0;fontFamily=Tahoma;fontSize=10;" vertex="1" parent="1">
                    <mxGeometry x="-740" y="470" width="160" height="86" as="geometry"/>
                </mxCell>
                <mxCell id="68" value="" style="line;strokeWidth=1;fillColor=none;align=left;verticalAlign=middle;spacingTop=-1;spacingLeft=3;spacingRight=3;rotatable=0;labelPosition=right;points=[];portConstraint=eastwest;strokeColor=inherit;fontFamily=Tahoma;fontSize=10;" vertex="1" parent="66">
                    <mxGeometry y="26" width="160" height="8" as="geometry"/>
                </mxCell>
                <mxCell id="71" value="// get UpdatedForm" style="text;strokeColor=none;fillColor=none;align=left;verticalAlign=top;spacingLeft=4;spacingRight=4;overflow=hidden;rotatable=0;points=[[0,0.5],[1,0.5]];portConstraint=eastwest;strokeWidth=0;fontFamily=Tahoma;fontSize=10;" vertex="1" parent="66">
                    <mxGeometry y="34" width="160" height="26" as="geometry"/>
                </mxCell>
                <mxCell id="80" value="// show UpdateForm" style="text;strokeColor=none;fillColor=none;align=left;verticalAlign=top;spacingLeft=4;spacingRight=4;overflow=hidden;rotatable=0;points=[[0,0.5],[1,0.5]];portConstraint=eastwest;strokeWidth=0;fontFamily=Tahoma;fontSize=10;" vertex="1" parent="66">
                    <mxGeometry y="60" width="160" height="26" as="geometry"/>
                </mxCell>
                <mxCell id="74" value="&lt;&lt;control&gt;&gt;&#10;UpdateStockControl" style="swimlane;fontStyle=1;align=center;verticalAlign=top;childLayout=stackLayout;horizontal=1;startSize=26;horizontalStack=0;resizeParent=1;resizeParentMax=0;resizeLast=0;collapsible=1;marginBottom=0;strokeWidth=0;fontFamily=Tahoma;fontSize=10;" vertex="1" parent="1">
                    <mxGeometry x="-541" y="470" width="160" height="112" as="geometry">
                        <mxRectangle x="-551" y="440" width="140" height="40" as="alternateBounds"/>
                    </mxGeometry>
                </mxCell>
                <mxCell id="75" value="" style="line;strokeWidth=1;fillColor=none;align=left;verticalAlign=middle;spacingTop=-1;spacingLeft=3;spacingRight=3;rotatable=0;labelPosition=right;points=[];portConstraint=eastwest;strokeColor=inherit;fontFamily=Tahoma;fontSize=10;" vertex="1" parent="74">
                    <mxGeometry y="26" width="160" height="8" as="geometry"/>
                </mxCell>
                <mxCell id="76" value="// get Update()" style="text;strokeColor=none;fillColor=none;align=left;verticalAlign=top;spacingLeft=4;spacingRight=4;overflow=hidden;rotatable=0;points=[[0,0.5],[1,0.5]];portConstraint=eastwest;strokeWidth=0;fontFamily=Tahoma;fontSize=10;" vertex="1" parent="74">
                    <mxGeometry y="34" width="160" height="26" as="geometry"/>
                </mxCell>
                <mxCell id="77" value="// get Confirm" style="text;strokeColor=none;fillColor=none;align=left;verticalAlign=top;spacingLeft=4;spacingRight=4;overflow=hidden;rotatable=0;points=[[0,0.5],[1,0.5]];portConstraint=eastwest;strokeWidth=0;fontFamily=Tahoma;fontSize=10;" vertex="1" parent="74">
                    <mxGeometry y="60" width="160" height="26" as="geometry"/>
                </mxCell>
                <mxCell id="101" value="// set UpdatedForm()" style="text;strokeColor=none;fillColor=none;align=left;verticalAlign=top;spacingLeft=4;spacingRight=4;overflow=hidden;rotatable=0;points=[[0,0.5],[1,0.5]];portConstraint=eastwest;strokeWidth=0;fontFamily=Tahoma;fontSize=10;" vertex="1" parent="74">
                    <mxGeometry y="86" width="160" height="26" as="geometry"/>
                </mxCell>
                <mxCell id="81" value="&lt;&lt;entity&gt;&gt;&#10;ProductStock" style="swimlane;fontStyle=1;align=center;verticalAlign=top;childLayout=stackLayout;horizontal=1;startSize=26;horizontalStack=0;resizeParent=1;resizeParentMax=0;resizeLast=0;collapsible=1;marginBottom=0;strokeWidth=0;fontFamily=Tahoma;fontSize=10;" vertex="1" parent="1">
                    <mxGeometry x="-340" y="470" width="160" height="60" as="geometry">
                        <mxRectangle x="-551" y="440" width="140" height="40" as="alternateBounds"/>
                    </mxGeometry>
                </mxCell>
                <mxCell id="82" value="" style="line;strokeWidth=1;fillColor=none;align=left;verticalAlign=middle;spacingTop=-1;spacingLeft=3;spacingRight=3;rotatable=0;labelPosition=right;points=[];portConstraint=eastwest;strokeColor=inherit;fontFamily=Tahoma;fontSize=10;" vertex="1" parent="81">
                    <mxGeometry y="26" width="160" height="8" as="geometry"/>
                </mxCell>
                <mxCell id="85" value="// update Product()" style="text;strokeColor=none;fillColor=none;align=left;verticalAlign=top;spacingLeft=4;spacingRight=4;overflow=hidden;rotatable=0;points=[[0,0.5],[1,0.5]];portConstraint=eastwest;strokeWidth=0;fontFamily=Tahoma;fontSize=10;" vertex="1" parent="81">
                    <mxGeometry y="34" width="160" height="26" as="geometry"/>
                </mxCell>
                <mxCell id="86" value="&lt;font style=&quot;&quot;&gt;&lt;span style=&quot;font-size: 10px;&quot;&gt;3. checkUpdatedProduct()&lt;/span&gt;&lt;br&gt;&lt;/font&gt;" style="text;html=1;align=left;verticalAlign=middle;resizable=0;points=[];autosize=1;strokeColor=none;fillColor=none;fontFamily=Tahoma;strokeWidth=0;" vertex="1" parent="1">
                    <mxGeometry x="-270" y="155" width="140" height="30" as="geometry"/>
                </mxCell>
                <mxCell id="90" value="Product" style="text;html=1;align=center;verticalAlign=middle;resizable=0;points=[];autosize=1;strokeColor=none;fillColor=none;fontSize=10;fontFamily=Tahoma;strokeWidth=0;" vertex="1" parent="1">
                    <mxGeometry x="151.56" y="135" width="60" height="30" as="geometry"/>
                </mxCell>
                <mxCell id="93" value="" style="endArrow=classic;html=1;fontFamily=Tahoma;entryX=0.018;entryY=0.976;entryDx=0;entryDy=0;entryPerimeter=0;" edge="1" parent="1" target="95">
                    <mxGeometry width="50" height="50" relative="1" as="geometry">
                        <mxPoint x="270" y="230" as="sourcePoint"/>
                        <mxPoint x="440" y="240" as="targetPoint"/>
                    </mxGeometry>
                </mxCell>
                <mxCell id="97" value="" style="edgeStyle=none;html=1;dashed=1;fontFamily=Tahoma;fontSize=10;endArrow=none;endFill=0;" edge="1" parent="1" source="3" target="95">
                    <mxGeometry relative="1" as="geometry">
                        <mxPoint x="450" y="600" as="targetPoint"/>
                        <mxPoint x="450" y="79.99999999999997" as="sourcePoint"/>
                    </mxGeometry>
                </mxCell>
                <mxCell id="95" value="" style="rounded=0;whiteSpace=wrap;html=1;rotation=90;" vertex="1" parent="1">
                    <mxGeometry x="428.28" y="234.54" width="43.44" height="17.18" as="geometry"/>
                </mxCell>
                <mxCell id="98" value="" style="endArrow=classic;html=1;fontFamily=Tahoma;entryX=0.025;entryY=0.958;entryDx=0;entryDy=0;entryPerimeter=0;" edge="1" parent="1" target="44">
                    <mxGeometry width="50" height="50" relative="1" as="geometry">
                        <mxPoint x="120" y="180" as="sourcePoint"/>
                        <mxPoint x="226.56231999999997" y="185.0019200000001" as="targetPoint"/>
                    </mxGeometry>
                </mxCell>
                <mxCell id="99" value="UpdateProduct" style="text;html=1;align=center;verticalAlign=middle;resizable=0;points=[];autosize=1;strokeColor=none;fillColor=none;fontSize=10;fontFamily=Tahoma;strokeWidth=0;" vertex="1" parent="1">
                    <mxGeometry x="310" y="190" width="90" height="30" as="geometry"/>
                </mxCell>
                <mxCell id="102" value="" style="endArrow=classic;html=1;fontFamily=Tahoma;entryX=0.018;entryY=0.976;entryDx=0;entryDy=0;entryPerimeter=0;" edge="1" parent="1" target="103">
                    <mxGeometry width="50" height="50" relative="1" as="geometry">
                        <mxPoint x="470" y="268" as="sourcePoint"/>
                        <mxPoint x="640" y="257.81" as="targetPoint"/>
                    </mxGeometry>
                </mxCell>
                <mxCell id="105" value="" style="edgeStyle=none;html=1;dashed=1;fontFamily=Tahoma;fontSize=10;endArrow=none;endFill=0;" edge="1" parent="1" source="4" target="103">
                    <mxGeometry relative="1" as="geometry">
                        <mxPoint x="645" y="600" as="targetPoint"/>
                        <mxPoint x="645" y="80.00000000000006" as="sourcePoint"/>
                    </mxGeometry>
                </mxCell>
                <mxCell id="103" value="" style="rounded=0;whiteSpace=wrap;html=1;rotation=90;" vertex="1" parent="1">
                    <mxGeometry x="601.64" y="301.64" width="86.72" height="17.18" as="geometry"/>
                </mxCell>
                <mxCell id="108" value="&lt;font style=&quot;font-size: 10px;&quot;&gt;8. updateProduct()&lt;br&gt;&lt;/font&gt;" style="text;html=1;align=left;verticalAlign=middle;resizable=0;points=[];autosize=1;strokeColor=none;fillColor=none;fontFamily=Tahoma;strokeWidth=0;" vertex="1" parent="1">
                    <mxGeometry x="500" y="234.54" width="110" height="30" as="geometry"/>
                </mxCell>
            </root>
        </mxGraphModel>
    </diagram>
</mxfile>